# xmcd
#
# Track frame offsets: 
#        150
#        10889
#        21596
#        35130
#        45515
#        58222
#        72434
#        85128
#        97018
#        111490
#        123122
#
# Disc length: 1814 seconds
#
# Revision: 3
# Processed by: cddbd v1.5.2PL0 Copyright (c) Steve Scherf et al.
# Submitted via: ExactAudioCopyFreeDBPlugin 1.0
#
DISCID=9b07140b
DTITLE=The Bar-Kays - Soul Finger
DYEAR=1967
DGENRE=Soul
TTITLE0=Soul Finger
TTITLE1=Knucklehead
TTITLE2=With a Child's Heart
TTITLE3=Bar-Kay's Boogaloo
TTITLE4=Theme from Hell's Angels
TTITLE5=You Can't Sit Down
TTITLE6=House Shoes
TTITLE7=Pearl High
TTITLE8=I Want Someone
TTITLE9=Hole in the Wall
TTITLE10=Don't Do That
EXTD=
EXTT0=
EXTT1=
EXTT2=
EXTT3=
EXTT4=
EXTT5=
EXTT6=
EXTT7=
EXTT8=
EXTT9=
EXTT10=
PLAYORDER=
